<svg xmlns="http://www.w3.org/2000/svg" viewBox="0 0 512 512" role="img" aria-label="小蜥蜴心情屋图标">
  <defs>
    <linearGradient id="bg" x1="80" y1="40" x2="430" y2="470" gradientUnits="userSpaceOnUse">
      <stop offset="0" stop-color="#fff8fb"/>
      <stop offset="0.48" stop-color="#ffd7e8"/>
      <stop offset="1" stop-color="#d7ecff"/>
    </linearGradient>
    <filter id="shadow" x="-20%" y="-20%" width="140%" height="140%">
      <feDropShadow dx="0" dy="18" stdDeviation="22" flood-color="#8d526c" flood-opacity="0.2"/>
    </filter>
  </defs>
  <rect width="512" height="512" rx="112" fill="url(#bg)"/>
  <path d="M108 158c24-32 64-42 96-20 30 21 37 64 16 95-24 34-72 35-108 7-31-24-28-52-4-82Z" fill="#302838" opacity="0.95"/>
  <path d="M392 158c-24-32-64-42-96-20-30 21-37 64-16 95 24 34 72 35 108 7 31-24 28-52 4-82Z" fill="#302838" opacity="0.95"/>
  <circle cx="256" cy="282" r="126" fill="#fff" filter="url(#shadow)"/>
  <path d="M210 258c-13 0-24 11-24 24s11 24 24 24 24-11 24-24-11-24-24-24Zm92 0c-13 0-24 11-24 24s11 24 24 24 24-11 24-24-11-24-24-24Z" fill="#2d2734"/>
  <path d="M239 318c13 12 31 12 44 0" fill="none" stroke="#e878ad" stroke-width="12" stroke-linecap="round"/>
  <path d="M156 224c-9-38 18-69 55-58" fill="none" stroke="#98d98e" stroke-width="22" stroke-linecap="round"/>
  <path d="M355 197c18 19 21 47 5 72" fill="none" stroke="#98d98e" stroke-width="22" stroke-linecap="round"/>
  <path d="M248 101c25 10 40 33 38 58-24 3-49-8-63-31l-5-9 30-18Z" fill="#e878ad"/>
  <path d="M263 101c-25 10-40 33-38 58 24 3 49-8 63-31l5-9-30-18Z" fill="#e878ad"/>
  <circle cx="256" cy="133" r="18" fill="#ffbfd8"/>
  <path d="M115 355c28 26 65 45 108 51" fill="none" stroke="#fff" stroke-width="16" stroke-linecap="round" opacity="0.8"/>
  <path d="M379 113l10 22 24 3-18 16 5 24-21-12-21 12 5-24-18-16 24-3 10-22Z" fill="#fff" opacity="0.9"/>
</svg>
