<svg xmlns="http://www.w3.org/2000/svg" viewBox="0 0 760 330">
  <defs>
    <linearGradient id="bg" x1="0" y1="0" x2="0" y2="1">
      <stop offset="0" stop-color="#ffe0e5"/>
      <stop offset=".58" stop-color="#fff4f4"/>
      <stop offset="1" stop-color="#fff8ef"/>
    </linearGradient>
    <pattern id="grid" width="34" height="34" patternUnits="userSpaceOnUse">
      <path d="M34 0H0v34" fill="none" stroke="#ff9bae" stroke-width="2" opacity=".18"/>
    </pattern>
    <filter id="shadow" x="-20%" y="-20%" width="140%" height="150%">
      <feDropShadow dx="0" dy="12" stdDeviation="13" flood-color="#d96278" flood-opacity=".22"/>
    </filter>
  </defs>
  <rect width="760" height="330" rx="42" fill="url(#bg)"/>
  <rect width="760" height="330" rx="42" fill="url(#grid)"/>
  <g fill="#ff8ea5" opacity=".8">
    <circle cx="95" cy="78" r="18"/><circle cx="122" cy="72" r="14"/><circle cx="110" cy="98" r="16"/><circle cx="78" cy="100" r="12"/>
    <circle cx="632" cy="64" r="18"/><circle cx="660" cy="72" r="15"/><circle cx="642" cy="95" r="16"/><circle cx="610" cy="92" r="12"/>
  </g>
  <g fill="#ff6f8d" opacity=".88">
    <path d="M197 72c24-28 56-15 53 18-2 28-30 49-53 66-23-17-51-38-53-66-3-33 29-46 53-18z"/>
    <path d="M486 80c20-23 48-12 46 16-2 23-26 42-46 56-20-14-44-33-46-56-2-28 26-39 46-16z" opacity=".38"/>
  </g>
  <g transform="translate(64 66)" filter="url(#shadow)">
    <path d="M29 108L6 20l74 58z" fill="#fffafd" stroke="#ffb4cb" stroke-width="8" stroke-linejoin="round"/>
    <path d="M123 108l27-88-79 58z" fill="#fffafd" stroke="#ffb4cb" stroke-width="8" stroke-linejoin="round"/>
    <path d="M30 103c-9 50 20 87 76 87s86-37 76-87c-9-46-42-68-76-68s-67 22-76 68z" fill="#fffafd"/>
    <path d="M56 24c34-31 67-24 79 9-34 6-58 0-79-9z" fill="#ff6f95"/>
    <path d="M109 34c29-30 63-18 72 14-35 9-58 2-72-14z" fill="#ff7ea3"/>
    <circle cx="119" cy="44" r="12" fill="#fff28c"/>
    <circle cx="78" cy="116" r="8" fill="#5c3947"/>
    <circle cx="131" cy="116" r="8" fill="#5c3947"/>
    <path d="M92 134q13 14 29 0" fill="none" stroke="#5c3947" stroke-width="6" stroke-linecap="round"/>
    <circle cx="48" cy="139" r="12" fill="#ffadc0" opacity=".85"/>
    <circle cx="158" cy="139" r="12" fill="#ffadc0" opacity=".85"/>
    <path d="M12 126c-28 6-44 20-54 44" fill="none" stroke="#ffb4cb" stroke-width="6" stroke-linecap="round" opacity=".75"/>
    <path d="M194 126c28 6 44 20 54 44" fill="none" stroke="#ffb4cb" stroke-width="6" stroke-linecap="round" opacity=".75"/>
  </g>
  <g transform="translate(545 50)" filter="url(#shadow)">
    <path d="M54 31c16-31 52-27 60 6-30 10-50 3-60-6z" fill="#ff6388"/>
    <path d="M29 40c-7-31 23-52 49-31-14 27-31 36-49 31z" fill="#ff8ea5"/>
    <ellipse cx="70" cy="145" rx="52" ry="62" fill="#b9ef94"/>
    <circle cx="72" cy="75" r="48" fill="#c8f5a6"/>
    <circle cx="55" cy="64" r="6" fill="#5c3947"/>
    <circle cx="90" cy="64" r="6" fill="#5c3947"/>
    <path d="M59 86q14 12 29 0" fill="none" stroke="#5c3947" stroke-width="6" stroke-linecap="round"/>
    <circle cx="49" cy="82" r="10" fill="#ff9cb7" opacity=".82"/>
    <circle cx="98" cy="82" r="10" fill="#ff9cb7" opacity=".82"/>
    <path d="M23 144c-45 4-55 39-25 65" fill="none" stroke="#8bd36e" stroke-width="16" stroke-linecap="round"/>
    <path d="M118 144c45 4 55 39 24 66" fill="none" stroke="#8bd36e" stroke-width="16" stroke-linecap="round"/>
    <path d="M73 105c39-34 76-2 55 39-11 22-34 40-55 55-22-15-45-33-56-55-21-41 16-73 56-39z" fill="#ff6388"/>
    <path d="M43 132c19-18 39-18 60 0" fill="none" stroke="#ff8fa8" stroke-width="5" stroke-linecap="round" opacity=".5"/>
  </g>
  <g fill="#ff8ea5" opacity=".42">
    <path d="M0 290c48-40 96-36 136 0v40H0z"/>
    <path d="M624 290c50-42 94-38 136 0v40H624z"/>
  </g>
</svg>
